/* XPM */
static char *_27a1256b32341dc92a7a6ffc3b183173P5fC1lrrP2f74JY[] = {
/* columns rows colors chars-per-pixel */
"50 50 214 2 ",
"   c #010101",
".  c #0A0102",
"X  c #010A03",
"o  c #0B0A06",
"O  c #020409",
"+  c #0A0209",
"@  c #020B0A",
"#  c #0A0A0B",
"$  c #110002",
"%  c #14020A",
"&  c #100C03",
"*  c #011904",
"=  c #03110A",
"-  c #09120B",
";  c #021A0C",
":  c #040811",
">  c #0C1D13",
",  c #0C1A1A",
"<  c #141F11",
"1  c #002106",
"2  c #01240A",
"3  c #002E0B",
"4  c #092808",
"5  c #002715",
"6  c #012D14",
"7  c #042E1C",
"8  c #092819",
"9  c #003113",
"0  c #03331B",
"q  c #0D341C",
"w  c #043B1C",
"e  c #0B3217",
"r  c #153118",
"t  c #113E1F",
"y  c #0B2F21",
"u  c #003621",
"i  c #013D23",
"p  c #0C3724",
"a  c #143A2B",
"s  c #00411E",
"d  c #024323",
"f  c #014B25",
"g  c #004728",
"h  c #014F28",
"j  c #0E4525",
"k  c #04532D",
"l  c #03592D",
"z  c #0C5029",
"x  c #055B31",
"c  c #0D5C3D",
"v  c #02622F",
"b  c #0A622F",
"n  c #036335",
"m  c #096033",
"M  c #076438",
"N  c #056B39",
"B  c #017530",
"V  c #02733B",
"C  c #0A753B",
"Z  c #017B3C",
"A  c #087A3C",
"S  c #005D43",
"D  c #086F40",
"F  c #037641",
"G  c #007B44",
"H  c #097C43",
"J  c #057F4B",
"K  c #0A7541",
"L  c #147749",
"P  c #00803E",
"I  c #028143",
"U  c #038148",
"Y  c #09844D",
"T  c #028C4A",
"R  c #068B46",
"E  c #03934F",
"W  c #078852",
"Q  c #009854",
"!  c #0A9E53",
"~  c #099554",
"^  c #03AD4C",
"/  c #03A350",
"(  c #00A850",
")  c #09A856",
"_  c #08AC5C",
"`  c #00AC5A",
"'  c #02B057",
"]  c #00B659",
"[  c #08AB64",
"{  c #01B464",
"}  c #03BD62",
"|  c #0ABE6C",
" . c #0AB368",
".. c #08C75F",
"X. c #04C55A",
"o. c #19C25D",
"O. c #02FC5C",
"+. c #0EC36D",
"@. c #02C76A",
"#. c #02D36D",
"$. c #04DB6D",
"%. c #05D467",
"&. c #13D06C",
"*. c #02C670",
"=. c #01CC73",
"-. c #06CD78",
";. c #14CD77",
":. c #05D373",
">. c #09D977",
",. c #00EE6B",
"<. c #01FD6C",
"1. c #05F76D",
"2. c #01E276",
"3. c #01EA73",
"4. c #04EA7E",
"5. c #0DEE7B",
"6. c #09E47D",
"7. c #00F276",
"8. c #00FD74",
"9. c #0AFB73",
"0. c #02F47B",
"q. c #01FC7B",
"w. c #0BFB7D",
"e. c #0BF47F",
"r. c #00E483",
"t. c #06EB83",
"y. c #06E888",
"u. c #01F484",
"i. c #0AF484",
"p. c #02FD84",
"a. c #0AFE84",
"s. c #05F58C",
"d. c #02FE8C",
"f. c #0BFC8A",
"g. c #08F38C",
"h. c #12FF8D",
"j. c #19FD8B",
"k. c #14F987",
"l. c #02FF93",
"z. c #0AFD93",
"x. c #00FF9E",
"c. c #0DFF98",
"v. c #1BFD99",
"b. c #25EF8C",
"n. c #27FA8F",
"m. c #2BF98D",
"M. c #20F790",
"N. c #2AFF95",
"B. c #23FF9E",
"V. c #2DFE9D",
"C. c #26F990",
"Z. c #38FA9B",
"A. c #2AF5A3",
"S. c #34FCA2",
"D. c #43F69D",
"F. c #41FBA0",
"G. c #48FFA0",
"H. c #5BF8A7",
"J. c #53FEAB",
"K. c #5BFDAE",
"L. c #57FFB7",
"P. c #61FEAD",
"I. c #68F8BD",
"U. c #6FFDB3",
"Y. c #72FDB5",
"T. c #77FAB9",
"R. c #7EFEC1",
"E. c #84FDBD",
"W. c #8CFABF",
"Q. c #85F5B6",
"!. c #8BFAC3",
"~. c #85FDC0",
"^. c #96FCC3",
"/. c #9CFDCC",
"(. c #90F6C4",
"). c #96FED2",
"_. c #A1F9C7",
"`. c #AFF2CF",
"'. c #A8FBCD",
"]. c #ADFFDF",
"[. c #A5FBD7",
"{. c #B9FAD2",
"}. c #B4FFDB",
"|. c #BCFCDB",
" X c #B0F6DA",
".X c #B9F4C8",
"XX c #BDFFE3",
"oX c #CEFCDE",
"OX c #C0FCD8",
"+X c #CCF5E0",
"@X c #C6FFE8",
"#X c #C9FAE8",
"$X c #D3FEEB",
"%X c #DDFEEB",
"&X c #E4F8EF",
"*X c #E9FBEF",
"=X c #F4FDED",
"-X c #E4FDF2",
";X c #ECFDF4",
":X c #ECFEF9",
">X c #FFF1F2",
",X c #F5FDF4",
"<X c #FCFDF5",
"1X c #FFF7FF",
"2X c #FFF6FD",
"3X c #F5FFFB",
"4X c #F1FFFD",
"5X c #F5FFFF",
"6X c #F4FDFC",
"7X c #FFF8FC",
"8X c #FFFBFF",
"9X c #FEF9FF",
"0X c #FEFEFE",
"qX c #FDFCFD",
/* pixels */
"                                    X X         O O O @   O O .   @                                 ",
"                      . . +       O + O O +   .       . .   #   .   X         @                     ",
"                O               X .     .   z *.o.:.T a         . X     O       @       . +         ",
"                .   @     X @ .     3 B &.3.p.f.q.q.q.a.3.;.s X     O +   O .     +                 ",
"                    . o       X I +.f.p.q.p.V.Z.A.L.H.n.a.q.p.2.! T 6 q s       @ @ . @     X       ",
"                  X   . o Y } $.a.0.u.T.|.$X<XqX<X>X0X4X-X/.D.a.p.a.a.q.0.:.W   . X   . + .         ",
"                O   > D @.d.p.a.F./.%X0X1X1X8X6X<X8X8X4X3X8X0X;X^.K.U.J.i.u.c.I X . o               ",
"                . l 6.q.p.b.!.6X8X8X4X>X0X$XqX0X5X5X0X8X0X;XqX-X8X8X1X5X3XQ.0.q.-.X . X             ",
"          . #   S f.8.G.+X9X8X1X<X3X4X8XY.8.Z.,X8X0X0X5X5X0X/.q.v.:X8X,X0X8XY.p.p._         O O     ",
"        +   X M h.0.P.,X0X5X;X<X0X3X0X0X}.J./.8X0XqX<X9X9X8XoXJ.~.<X6X,XqX6XqXS.q.t.    X           ",
"    X       * -.<.p.=X<X2XqX1X0X5X8X8X9X8X;X0X6X:X3XqX0X4X8X8X3X8X,X3X8X;X0X;Xm.q.4.    .           ",
"  . .     X y.f.C.*X5X5X,X8X0X5X0XqX<XqX0X6XqX<X0X<X<X8X0X0X8X0XqX8X<X0X3XqX^.1.d.Z   + .           ",
"      @ .   y.d.e.(.#XqXqX0XqX<XqXqX3XqX0X4X0X<X$X|.}.}.}.}.|.|.@X X].#X1X%Xj.q.>.*   +             ",
"  .         t =.p.p.p.N.Q.+X5X8X9X0X0X:X8X0X0XXX8.8.8.9.1.<.8.9.O.<.<.w.{.J.w.l.k                   ",
"    .   O   . X 8 I @.p.w.d.M.'.=XqX0XqX<X6X9X3X_.!.R.~.W.W.E.E.).).W.T.Z.q.p.C     +       .       ",
"            @         6 | X.q.d.j.J.I.OXoXqX0XqXqXqXqX0X0XqXqX0X&X.XY.B.8.p.M O @     .             ",
"    .     .         O   .   g [ ,.w.8.p.d.F.D.K.{./.[.[.`.W.S.V.q.q.p.4.[ d   o . O       .   .     ",
"            @ % X o     X   . . , ; L Y #.7.0.8.8.q.0.p.p.q.q.0.{ E l *     O                       ",
". @       .         .   O       @ . X . X o   ~ k.l.E l x x m &         . .     O         o         ",
"      O     r d d d i i i i d g w d s g d p 6 G k.d.N ; 0 8 u 7 d d d s s s s w . +       .   .     ",
"X         J x.l.d.d.d.l.l.l.l.z.c.l.z.f.l.l.d.u.q.7.z.l.z.z.l.l.l.l.l.l.l.c.g.l.%.%.$.:. .-   +     ",
"  . .     ; V H A H H C V Z Z Z Z A Z Z F G V [ p.d.` V G G F Z H V Z I I K U =.7.3.7.u.=.2 X       ",
"    . .   .   X .           X   O       .     f p.l.f . X   X                 X $ # O     . @ O     ",
"    .       @   O @ O         O   X   X   o   x p.l.h . @ @   O O +   O   . +   @   . X     $       ",
"                                          .   c d.u.^ .   + . X                                     ",
"                                          .   5 #.l.5.- O                                           ",
"                                          .     / d.p.X                                             ",
"                                            @ . ' d.0.X   O                                         ",
"                                        .   X . ] z.5.=                                             ",
"                                        +       ( d.0.X                                             ",
"                                            @   _ l.0.X                                             ",
"                                                ] l.0.=                                             ",
"                                .   X       X b p.q.u.. O   .                                       ",
"                              O     +   > v y.f.z.f.d.~ X . @ .                                     ",
"                                + . O G p.l.d.{ h N d.p.r.                                          ",
"                        . . O @   y #.l.a...7   .   +.p.p.M   $                                     ",
"                  . . O O .     P d.f.0.A   . + o O g a.w.d.i   #                                   ",
"                . . @   @     J a.d.q.6 +   O X     + C q.q.m O                                     ",
"                  @   X . r =.u.a.#.0     :       =   d d.p.)   =     +                             ",
"                  X   X U d.p.p.U   $       . O       ; r.p.i.! a X   +                             ",
"    .               j :.q.d.U 5                       X 9 | u.d.s.! X   % X   O                     ",
"        @   @   X Q d.p.l.V . .                   +     X . 1  .d.d.6.v 2 .   O                     ",
"  .     O @ O   ;.f.u.} <                                 @     2 R d.d.i.2.{ X                     ",
"    @         T p.p.B     @   .                   .   O     O     . e I g.u.z.q                     ",
"          . 4 2.a.d.*       X @                   @   .         O #     Y p.d./                     ",
"  .       d >.f.s.n   .   X $                                           * t.p.t.                    ",
"      @ . k s.r.V . X O       .                     .   . +       o   #   V u.H                     ",
"    .       $ X .   $   + O                         . O         .   X O     o                       ",
"                                                                                                    ",
"                                                                                                    "
};
