/* XPM */
static char *_89c953f5cd24edffe978f1e6113bbd8tY3X4p7ZVCJWy9wG[] = {
/* columns rows colors chars-per-pixel */
"50 50 171 2 ",
"   c #010101",
".  c #090401",
"X  c #060902",
"o  c #0A0B02",
"O  c #02020B",
"+  c #08010A",
"@  c #06080D",
"#  c #0A0A0A",
"$  c #130C03",
"%  c #151000",
"&  c #1E1E06",
"*  c #11100B",
"=  c #1C190A",
"-  c #040312",
";  c #090411",
":  c #0A0B10",
">  c #05001D",
",  c #0D001B",
"<  c #110F12",
"1  c #1A1313",
"2  c #211B00",
"3  c #221C0C",
"4  c #211A10",
"5  c #292A00",
"6  c #2B270E",
"7  c #262213",
"8  c #2C2A11",
"9  c #322C12",
"0  c #30271E",
"q  c #382D19",
"w  c #3F3C13",
"e  c #343315",
"r  c #3D3B26",
"t  c #3F3B28",
"y  c #423F1C",
"u  c #3E4116",
"i  c #414012",
"p  c #45411B",
"a  c #534D15",
"s  c #4F521B",
"d  c #444223",
"f  c #4B4626",
"g  c #504E2A",
"h  c #5F5E26",
"j  c #565329",
"k  c #59562B",
"l  c #4F4B30",
"z  c #484139",
"x  c #5A5736",
"c  c #5C5A31",
"v  c #615E33",
"b  c #6E712E",
"n  c #676A3D",
"m  c #7C7D36",
"M  c #7B7D3C",
"N  c #605A44",
"B  c #676445",
"V  c #706C47",
"C  c #7F7C47",
"Z  c #7A7852",
"A  c #7E8035",
"S  c #7F8138",
"D  c #818338",
"F  c #858839",
"G  c #88893D",
"H  c #989D37",
"J  c #858446",
"K  c #8B8747",
"L  c #8B8B45",
"P  c #8F8E4D",
"I  c #939544",
"U  c #9B9A4A",
"Y  c #8D8A5F",
"T  c #969656",
"R  c #9B9E51",
"E  c #A1A352",
"W  c #B1B45D",
"Q  c #B9BF5D",
"!  c #9A9961",
"~  c #AAAB63",
"^  c #B9BC63",
"/  c #BBBD69",
"(  c #BDC163",
")  c #BBC46B",
"_  c #C1C861",
"`  c #C4C96D",
"'  c #CACC69",
"]  c #CAD064",
"[  c #CED36C",
"{  c #D8DC64",
"}  c #D4DB69",
"|  c #DADD6A",
" . c #CBCE77",
".. c #D2D671",
"X. c #D4DB73",
"o. c #DEE561",
"O. c #E4E667",
"+. c #E3EA66",
"@. c #E1E66D",
"#. c #E1E96F",
"$. c #EAE86F",
"%. c #EDF669",
"&. c #FBFD6E",
"*. c #E4E772",
"=. c #E2E970",
"-. c #E2E678",
";. c #EAEF79",
":. c #F4EF7D",
">. c #EDF271",
",. c #F5F575",
"<. c #F6FA73",
"1. c #FCFD75",
"2. c #F5F67C",
"3. c #F9F77C",
"4. c #F6FA7B",
"5. c #FFFF7D",
"6. c #FDFF7F",
"7. c #FFFF7F",
"8. c #FDFE7D",
"9. c #FDFE7C",
"0. c #DFE094",
"q. c #E2E982",
"w. c #E9EB86",
"e. c #E9EF81",
"r. c #E6E588",
"t. c #E6EE8B",
"y. c #F8F783",
"u. c #F4F984",
"i. c #FBF980",
"p. c #FCFA81",
"a. c #FBFD82",
"s. c #FFFF80",
"d. c #FFFF81",
"f. c #FFFE80",
"g. c #FFFD82",
"h. c #FDFF82",
"j. c #FFFF82",
"k. c #FEFF83",
"l. c #FCFC80",
"z. c #F8F886",
"x. c #FDFB85",
"c. c #FBFF84",
"v. c #F8FC84",
"b. c #FDFD85",
"n. c #FDFF84",
"m. c #FFFF84",
"M. c #FDFF87",
"N. c #FFFF86",
"B. c #FFFF87",
"V. c #FFFF81",
"C. c #F6FA8B",
"Z. c #FAFA8A",
"A. c #FCFA8A",
"S. c #FBFF88",
"D. c #FAFD88",
"F. c #FFFD88",
"G. c #FFFF88",
"H. c #FFFF89",
"J. c #FFFF8A",
"K. c #FDFD8A",
"L. c #FFFF8D",
"P. c #FFFD8F",
"I. c #FEFE8B",
"U. c #F9F592",
"Y. c #F1F891",
"T. c #FFFF92",
"R. c #FFFE90",
"E. c #FFFF96",
"W. c #FFFF92",
"Q. c #FFFB98",
"!. c #FBFC9F",
/* pixels */
"                      O       O   X O O @ + O O   O O ;     X     O +   X                           ",
"                  O     X X   X @     #                     X   -     +   -   O                     ",
"                          X X     #       -   O - O   X   O   O     - O O   O                       ",
"                      O     @ O > . 5 ) + O     X   O O O O   + + +   O @   X +                     ",
"                  X     :     * q +.w.!.H , 6 $ 2 0.#.+.=.-.@.%.M .                                 ",
"                  O @       j Y.5.1.8.<.h.8.x.m.J.3.m.m.m.3.m.h.J.[ 9 g - X   ;                     ",
"                O   o O 7 E m.h.A.A.5.h.J.5.x.8.1.8.m.3.8.h.,.J.Z.h.J.E.~ 4 X                       ",
"                  -   n t.S.3.8.5.8.J.8.8.J.1.m.m.m.a.h.8.h.h.8.h.1.h.,.8.=.  O                     ",
"    O     X   - + + a 8.4.p.8.m.8.8.h.h.h.h.8.8.h.h.h.h.8.8.8.8.5.J.<.1.,.P.r.a   # O X             ",
"  O           O k 1.<.Q.h.1.m.5.8.8.h.h.h.8.8.8.h.h.h.h.8.8.8.8.1.h.J.T.J.h.m.S.&   # O       O     ",
"    X     X   s >.x.h.5.i.J.1.5.8.8.h.h.h.h.h.h.h.h.h.h.h.h.h.h.m.h.P.y.<.1.,.8. .    O X O O       ",
"O           V T.8.U.P.5.8.x.h.h.8.8.h.h.h.h.h.h.h.h.h.h.h.h.h.h.m.1.8.8.1.5.P.v.J.U           X     ",
"X O   O X t Z.4.A.5.&.8.h.3.m.4.h.h.h.h.h.h.h.h.h.h.h.h.h.h.h.h.1.m.8.h.m.4.8.m.h.a.x @ O   X       ",
"  O O X $ ;.h.8.5.8.8.<.8.J.3.P.h.h.h.h.h.h.h.h.h.h.h.h.h.h.h.h.1.J.m.8.T.J.1.5.,.P.L   o   -       ",
"    .   ( h.<.h.8.8.P.T.8.1.8.h.h.h.h.h.h.h.8.8.8.8.h.h.h.h.8.8.J.i.h.8.8.8.8.m.i.m.x.p       -     ",
"  #   L Z.x.m.5.5.m.5.1.5.h.h.h.h.h.h.h.h.h.8.8.8.8.h.h.h.8.8.8.h.5.5.8.5.h.J.8.1.1.J.e.3 +         ",
"  + . *.h.8.8.J.h.h.h.h.h.h.h.h.8.8.8.h.h.h.h.h.8.8.h.h.h.h.h.h.8.8.8.h.h.h.h.8.C.h.:.m.v   -       ",
"X + N m.h.h.8.h.h.h.h.8.h.h.h.h.8.8.h.h.h.h.h.h.8.8.h.h.h.h.h.h.8.8.8.8.h.h.h.h.8.<.P.4...-         ",
"X   Y h.4.m.5.1.h.h.8.8.h.h.h.h.h.h.h.h.h.h.h.h.8.8.h.h.h.h.8.8.h.8.h.h.h.h.h.h.1.5.m.8.a.7   X     ",
"X   J 4.3.J.5.8.h.h.8.8.h.h.h.h.h.h.h.h.h.h.h.8.8.8.h.h.h.8.8.8.h.h.h.h.h.h.h.h.3.h.p.8.8.E   X     ",
"O X m m.h.J.1.h.h.h.8.8.8.8.8.8.h.h.h.h.h.h.8.8.h.h.h.h.h.h.h.h.h.h.h.h.h.h.h.h.J.3.m.J.1...=       ",
"O   S T.3.m.8.a.h.h.8.8.8.8.8.8.h.h.h.h.h.h.8.8.h.h.h.h.h.h.h.h.h.h.h.h.h.h.h.h.1.J.h.4.5.P.z       ",
"#   D T.4.h.h.m.h.h.8.8.h.h.h.h.8.8.8.8.h.h.h.h.h.h.8.8.8.8.h.h.8.8.h.h.h.h.8.h.1.h.h.8.x.4.f       ",
"X + m E.4.1.5.m.h.h.8.8.h.h.h.h.8.8.8.8.h.h.h.h.h.h.8.8.8.8.h.h.8.8.8.h.h.h.8.8.T.1.8.P.1.P.X.  X   ",
"X . C Z.m.1.5.h.h.h.h.h.h.h.h.h.h.h.h.h.h.h.h.h.h.h.h.h.h.h.h.h.8.8.h.h.h.h.8.8.8.m.h.8.8.m.|   O O ",
"@   J T.3.1.h.8.h.h.h.h.h.h.h.h.h.h.h.h.h.h.h.h.h.h.h.h.h.h.h.h.8.8.h.h.h.h.8.8.8.h.h.8.h.m.|   O   ",
"#   A J.8.5.m.5.h.h.8.8.8.8.8.h.h.h.h.h.8.8.h.h.8.8.8.h.8.8.8.8.h.8.h.h.h.h.h.8.8.h.h.8.h.m.|       ",
"O + F v.4.h.m.5.h.h.8.8.8.8.h.h.h.h.h.8.8.8.h.h.8.8.h.h.8.8.8.8.h.h.h.h.h.h.h.h.8.h.h.8.h.m.|     + ",
"@   K T.,.h.m.5.h.h.8.8.8.8.h.h.8.8.8.8.8.8.h.h.h.h.h.h.h.h.h.h.h.h.h.h.h.h.h.h.8.h.h.8.h.m.|       ",
"@   y 2.m.8.J.5.h.h.8.8.8.8.h.h.8.8.8.8.8.8.h.h.h.h.h.8.h.h.h.h.h.h.h.h.h.h.h.h.8.m.h.8.h.m.|       ",
"  X   { P.4.m.<.h.h.h.h.8.h.h.h.h.h.h.h.8.8.h.h.h.h.8.8.h.h.h.h.8.h.8.8.h.h.h.h.8.h.h.8.h.m.|       ",
"    ; @.Z.8.h.8.h.h.h.h.h.h.h.h.h.h.h.h.8.8.h.h.h.h.8.8.h.h.h.h.8.8.8.8.8.h.h.h.8.h.h.8.h.m.|       ",
"      Q P.h.m.1.h.h.h.h.h.h.h.h.h.h.h.h.h.h.8.8.h.h.h.h.h.h.h.8.8.h.h.h.h.h.h.h.1.h.m.x.5.P.d   @ X ",
"  X O t h.,.8.1.h.h.h.h.h.8.h.h.h.8.h.h.h.h.8.8.h.h.h.h.h.h.8.8.8.8.h.h.h.h.h.h.8.8.m.8.4.y.i   X   ",
"- O   < } h.p.P.h.8.8.h.h.h.8.8.8.8.h.h.h.h.h.8.h.h.h.h.h.h.h.h.h.h.h.h.h.h.h.h.9.J.1.5.i.J.d       ",
"  - X   8 4.h.h.8.8.8.8.8.8.h.8.8.8.8.h.h.h.8.8.h.h.h.h.h.h.h.h.h.h.h.h.h.h.h.h.h.P.&.4.h./   X     ",
"  O O # O q.8.8.h.h.8.8.8.8.h.h.h.h.h.h.h.h.h.h.8.8.h.h.h.h.h.h.h.h.h.h.h.h.8.8.h.5.J.h.8.$   X     ",
"O   -     u x.3.h.h.h.8.8.h.h.h.h.h.h.h.h.h.h.h.8.8.h.h.h.h.h.8.8.h.h.h.h.h.8.8.8.8.:.P._ - O       ",
"O X       - b T.3.h.h.h.8.8.h.h.h.h.8.8.8.8.h.h.8.h.h.h.h.8.8.8.8.8.8.h.h.h.h.8.1.i.3.T.c   -       ",
"  O   X   O   j 3.8.h.h.h.h.h.h.h.h.h.8.8.8.h.h.8.h.h.h.h.8.8.8.8.8.8.h.h.h.h.8.m.3.J.O.1           ",
"              X g m.1.<.p.m.1.J.J.m.8.J.m.5.5.m.8.8.8.8.8.8.8.8.8.h.8.1.8.8.h.5.v.4.I ; O           ",
"              X + Z <.P.A.&.8.h.5.&.5.8.h.5.5.h.8.8.8.h.8.8.8.8.h.8.h.E.m.J.8.3.J.]     X           ",
"              X o   0 Z.3.x.8.8.h.5.8.h.J.h.h.m.m.m.m.m.m.m.m.m.h.8.h.1.h.5.$.J.u.1 X #             ",
"                  O   h E.T.1.h.8.h.8.h.h.<.1.1.8.8.8.8.8.8.8.8.1.8.5.h.4.m.T.W e         X         ",
"                  O O + w o.P.h.3.h.h.8.m.h.h.h.8.8.h.h.h.h.h.h.h.h.A.J.1.R r o - X O   #           ",
"                    O - . . T x.m.i.m.<.<.3.2.3.3.3.3.3.3.3.i.i.p.p.5.4.l +     X O   O   X         ",
"                X   O         d ` ^ ' J.a.P.E.P.P.J.J.J.J.J.J.J.m.h.~ ;     o       - O   X O       ",
"                  O                 % ! L K P G L L L L L L L L I B       O           +       O     ",
"                                @ @                               X                                 ",
"                                      X X X X # X X X X X X X X X X                                 "
};
