/* XPM */
static char *d057daad47734ebcd4ebd51a53060750vOel0PaNFDcA3fCD[] = {
/* columns rows colors chars-per-pixel */
"50 50 215 2 ",
"   c #010101",
".  c #0B0202",
"X  c #020904",
"o  c #0B0804",
"O  c #01020A",
"+  c #08040A",
"@  c #0B0C0B",
"#  c #00090C",
"$  c #120200",
"%  c #130903",
"&  c #1B0E06",
"*  c #150D0A",
"=  c #1D0909",
"-  c #15100C",
";  c #1E130A",
":  c #00001E",
">  c #241E08",
",  c #32150D",
"<  c #3E1708",
"1  c #3A1D0E",
"2  c #371E17",
"3  c #2A1615",
"4  c #302200",
"5  c #3C2008",
"6  c #372514",
"7  c #3B2515",
"8  c #331C24",
"9  c #3E2423",
"0  c #43190D",
"q  c #411B1A",
"w  c #45240E",
"e  c #4C240B",
"r  c #52280F",
"t  c #53200F",
"y  c #4E2511",
"u  c #47291F",
"i  c #432812",
"p  c #552D15",
"a  c #6F3400",
"s  c #703600",
"d  c #743C00",
"f  c #7D3C00",
"g  c #623416",
"h  c #6E3519",
"j  c #60321B",
"k  c #7E391B",
"l  c #72391D",
"z  c #6A2B08",
"x  c #512B20",
"c  c #573722",
"v  c #6D3B24",
"b  c #6A3928",
"n  c #733921",
"m  c #7D3F21",
"M  c #7A4100",
"N  c #7D450A",
"B  c #7F4215",
"V  c #7D4223",
"C  c #744529",
"Z  c #833500",
"A  c #883817",
"S  c #823919",
"D  c #853F22",
"F  c #8E3E25",
"G  c #834404",
"H  c #814008",
"J  c #83490A",
"K  c #994C0D",
"L  c #934300",
"P  c #83481F",
"I  c #9F5611",
"U  c #A84C12",
"Y  c #A35412",
"T  c #B55B1B",
"R  c #814125",
"E  c #8A4A2A",
"W  c #9B4B26",
"Q  c #9C4E29",
"!  c #904C29",
"~  c #94522C",
"^  c #9D522B",
"/  c #A64E26",
"(  c #A55A21",
")  c #B5552A",
"_  c #B7582B",
"`  c #AC5B35",
"'  c #A75C3C",
"]  c #BF5D30",
"[  c #B65D3B",
"{  c #BD6138",
"}  c #C95E32",
"|  c #CE632D",
" . c #C8662A",
".. c #C56535",
"X. c #CE6F37",
"o. c #D46C33",
"O. c #D66B3C",
"+. c #DC6839",
"@. c #DD7634",
"#. c #DF7038",
"$. c #DC7936",
"%. c #D4662B",
"&. c #E26F2C",
"*. c #FE6227",
"=. c #F7702E",
"-. c #E86C37",
";. c #FF6C31",
":. c #F66F38",
">. c #FF6838",
",. c #E37234",
"<. c #EF7434",
"1. c #EA723B",
"2. c #ED7B3B",
"3. c #E2783C",
"4. c #F47636",
"5. c #FF7334",
"6. c #F37D34",
"7. c #FE7B35",
"8. c #F77539",
"9. c #FD753B",
"0. c #F47B3C",
"q. c #FC7D3D",
"w. c #D26A43",
"e. c #DC7A46",
"r. c #D27144",
"t. c #E86F42",
"y. c #E47A4A",
"u. c #F67740",
"i. c #FE7641",
"p. c #F67D42",
"a. c #FE7E42",
"s. c #F77F4B",
"d. c #FD7E4A",
"f. c #F67B51",
"g. c #EF883D",
"h. c #FC8235",
"j. c #F6813C",
"k. c #FD823D",
"l. c #FE8A3D",
"z. c #F7893C",
"x. c #F68242",
"c. c #FE8142",
"v. c #FA8542",
"b. c #FF8542",
"n. c #FE8542",
"m. c #FE8046",
"M. c #FF8545",
"N. c #FF8547",
"B. c #FF8142",
"V. c #FF8945",
"C. c #FE8A46",
"Z. c #FE8D45",
"A. c #FE8A45",
"S. c #F4824C",
"D. c #FF8149",
"F. c #FE844A",
"G. c #FF8F48",
"H. c #FE8B4B",
"J. c #F49544",
"K. c #FD9445",
"L. c #F99944",
"P. c #FE944C",
"I. c #FB9C4C",
"U. c #F49948",
"Y. c #FC8255",
"T. c #FF8A53",
"R. c #F68D56",
"E. c #FF9352",
"W. c #FF9A55",
"Q. c #F2A04B",
"!. c #FDA948",
"~. c #FFA953",
"^. c #FFAD5C",
"/. c #F7A758",
"(. c #EDBE57",
"). c #FCB254",
"_. c #FCB45B",
"`. c #FABE5F",
"'. c #F6B858",
"]. c #FEBC61",
"[. c #FBBE6B",
"{. c #FFC456",
"}. c #FFC563",
"|. c #FCCD65",
" X c #FFC068",
".X c #FDCC6C",
"XX c #F7C264",
"oX c #EED36A",
"OX c #F7D567",
"+X c #FED26C",
"@X c #FFD968",
"#X c #F7D56A",
"$X c #FFDB77",
"%X c #FFDE7B",
"&X c #F4D972",
"*X c #F5E376",
"=X c #FEE576",
"-X c #FEE47A",
";X c #F3EE7D",
":X c #FCEB79",
">X c #F2F479",
",X c #FFF47A",
"<X c #FCFC7B",
"1X c #F3FC7D",
"2X c #FFE780",
"3X c #FFEE80",
"4X c #FFEF89",
"5X c #EEFF83",
"6X c #FEF383",
"7X c #F4FE84",
"8X c #FDFD83",
"9X c #FEFE8A",
"0X c #F1FF8A",
"qX c #F7FF90",
"wX c #FDFF92",
/* pixels */
"O .     #     . .             . .               .           .                         .             ",
"    O     . O                                                                   X     .   X         ",
"  X O . , 1 2 q l V R R R R m V R R R R R R R R S D R v y 1 6 6 1 1 1 1 1 1 1 1 < y v C i X X X     ",
"    7 y.F.h.l.k.v.Z.C.b.b.C.C.Z.C.C.C.C.C.C.C.C.Z.Z.Z.C.N.m.m.a.N.N.N.N.N.N.N.N.k.l.A.G.` . +       ",
"%   g H.i.0.q.S.q.c.q.q.a.c.q.q.q.q.q.q.q.q.q.q.a.p.p.a.a.m.m.a.j.j.j.j.j.j.j.j.Y.p.p.b.[   +       ",
"O O i c.m.z.a.F.a.F.F.m.m.a.a.a.a.a.a.a.a.a.a.a.q.k.b.b.q.q.c.N.a.a.a.a.a.a.a.a.j.h.c.l.)           ",
"X . $ y.a.h.F.q.k.k.j.j.j.0.q.c.k.k.k.k.k.k.k.k.F.a.a.c.k.k.l.h.a.a.a.a.a.a.a.a.c.k.s.j.) X   X     ",
"  . O h G.6.Y.h.m.a.x.H.W.E.c.8.a.a.a.a.a.a.a.a.k.k.k.c.a.a.m.a.k.k.k.k.k.k.k.k.q.c.f.A.}   .       ",
"      + &.a.a.v.a.v.8.^.8X8X:X_.P.0.N.c.q.v.a.c.c.k.h.k.c.a.k.h.q.q.a.a.P.q.q.b.k.a.j.a.q.;         ",
"    .   X.N.a.q.x.a.m.P.5X(.}.4X9X:XJ.0.m.i.q.a.0.i.d.F.0.i.i.S.a.H.v.XX9X}.5.c.c.a.j.a.q.&         ",
"        ~ b.a.k.c.c.0.C.9X}.=.q.K.%XwXC.9.7.).8X=X Xq.4.U._.J.m.p.a.J.9X<X7X'.i.c.m.j.a.q.&         ",
"      X c C.a.q.9.H.p.q.*X8Xg.a.2.v.qXoXL.6X>X'.{.8XOX:X8X,X8X}.a.9._.8X|.=X6Xq.q.a.k.a.q.&         ",
"        % o.m.c.q.c.m.4._.9XW.i.c.q.].1X8X-Xv.>.I.5X:X`.W.9.].0XI.<..X9XI.J.0X~.q.a.k.c.q.&         ",
"    O .   ^ N.q.v.a.F.q.K.9X_.4.m.;.).8X8X|.C.9.[.wX].*.9.:./.9XQ.5.].wX.X-X5X).q.a.k.c.q.&         ",
"    O     j b.q.q.a.i.q.l.9X_.;.v./.;X6X_.;X8X:X9X*X3X$X].L.).0XU.q..X7X0X:XI.9.q.a.k.c.q.&         ",
"    O . X u b.c.a.v.x.q.l.8X>X-X<X,X#XI.q.9.Q.~.!.7.I.&X=X8X7X_.i.c.6X@X!.8X^.a.c.m.k.c.q.&         ",
"  X     X x H.q.i.N.q.q.J.%X2X`.E.N.4.q.c.c.q.q.q.a.q.4.q.H.G.j.m.j.6X+X;./.qX).q.q.c.a.l.l         ",
"        X , a.b.c.q.q.a.9.j.j.5.j.j.c.c.a.q.a.m.c.a.q.q.c.c.c.c.p.A.+X(.q.G.$X+Xq.q.c.a.A.n         ",
"          . -.j.c.q.c.N.b.q.k.b.q.q.c.m.c.a.a.c.c.q.q.c.c.q.q.c.F.9.7.6.c.a.z.l.q.a.c.a.A.n         ",
"  X O   X X t.G.c.c.c.2.c.a.a.0.N.c.q.a.c.c.c.q.q.a.c.c.c.c.c.c.m.c.c.c.c.0.q.k.c.a.c.a.A.n         ",
"  X         ) j.q.q.c.j.N.i.a.m.c.c.c.c.q.q.c.N.a.c.c.a.a.c.c.q.i.a.j.a.i.a.N.q.c.a.c.a.A.n         ",
"            m H.a.c.N.j.c.q.c.x.q.c.c.c.a.q.c.c.c.c.a.c.c.a.a.a.x.m.m.N.a.q.c.a.c.a.c.a.A.n         ",
"    X       5 c.c.a.a.q.a.m.N.a.c.c.c.c.c.c.a.q.c.q.q.c.c.c.c.c.j.a.a.c.N.q.v.a.c.a.c.a.A.n         ",
"    X   .   > m.x.q.a.N.b.q.q.k.a.a.a.a.a.c.c.c.a.c.c.a.q.c.c.a.q.a.a.i.a.j.G.a.c.a.c.a.A.n         ",
"          . ; T.c.q.c.c.a.a.c.a.a.c.c.c.c.a.c.c.c.c.c.c.c.c.c.c.c.a.c.c.x.p.#.o.$.F.i.9.J.h   X     ",
"      O       | c.q.c.c.c.a.c.a.a.c.c.c.c.a.a.c.c.c.c.c.c.c.c.c.q.q.c.N.@.L f f G ,.F.q.z.F . .     ",
"            o { N.c.q.c.c.a.c.a.a.c.c.c.c.c.c.c.c.c.c.c.a.a.c.c.q.c.c.a.,.Z M J s T F.q.z.[   X     ",
"      +       k N.c.q.c.c.a.c.c.c.c.c.c.c.c.c.c.c.c.c.c.a.a.c.c.q.j.q.d.s.K J H N Y d.k.k.w.X       ",
"          X o b N.c.q.c.c.a.c.c.c.c.c.c.c.c.c.c.c.c.c.c.a.c.c.c.c.j.c.d.0.K d d a I F.j.k.+.        ",
"              2 c.q.c.c.c.c.c.a.c.c.c.c.c.c.c.c.c.c.c.c.c.c.c.c.c.q.q.a.N.3.T U U  .F.q.m.%.  X     ",
"      .       = q.q.c.c.q.c.c.a.a.a.c.c.a.c.c.c.c.c.a.c.c.c.c.c.q.N.N.q.9.m.a.F.x.b.a.j.F.@.o X     ",
"    X .   X   * 4.q.c.c.q.c.c.a.a.c.c.c.a.a.a.c.c.c.a.c.c.c.c.c.m.q.q.k.b.z.j.c.c.7.c.b.p.v.8 .     ",
"              * a.9.c.m.k.c.x.q.c.c.c.c.c.c.c.c.c.c.c.c.c.c.c.c.a.c.c.c.a.a.a.c.q.m.p.c.a.N.0 X     ",
"              - 0.q.m.x.q.c.m.q.c.c.c.c.a.c.c.c.c.c.a.a.c.c.c.c.a.a.c.c.c.c.c.c.k.m.x.q.a.H.t X     ",
"              * S.c.q.m.k.q.a.q.c.c.a.a.a.c.c.c.c.c.a.c.c.c.c.c.c.c.c.c.c.c.c.c.k.a.q.N.a.C.E       ",
"              . O.c.k.m.c.k.m.k.c.c.c.a.a.c.c.c.c.c.c.c.c.c.c.c.c.c.c.c.c.c.c.c.k.a.c.q.q.C.Q       ",
"                / c.k.a.q.c.N.a.c.c.c.a.c.c.c.c.c.c.c.c.c.c.a.a.c.c.c.c.c.c.c.c.c.a.k.N.q.k.r.      ",
"                ` H.7.a.m.q.c.c.c.c.c.c.c.c.c.c.c.c.c.a.c.c.a.c.a.c.c.c.c.c.c.c.q.a.b.a.c.G.3.*     ",
"            X   ' H.7.x.N.q.q.m.c.c.c.c.a.a.c.c.c.c.c.a.c.c.c.c.a.c.c.c.c.a.a.c.c.a.k.m.q.a.2..     ",
"            X   k F.h.x.m.k.c.a.c.c.c.c.c.a.c.c.c.c.a.a.c.c.c.c.a.a.c.c.c.c.a.c.c.a.k.x.c.N.<.o     ",
"                w N.s.a.a.z.m.a.c.c.c.c.c.c.c.c.c.c.c.c.c.c.c.c.a.m.m.m.m.m.a.a.c.p.v.j.d.z.2..     ",
"                e C.4.c.b.q.a.c.c.c.c.c.c.c.c.c.c.c.c.c.c.c.c.c.k.k.q.q.q.k.c.a.c.i.c.7.i.b.<..     ",
"                7 N.j.q.q.c.a.j.c.c.c.c.c.c.c.c.c.c.c.c.c.c.c.c.k.k.k.k.k.N.c.a.c.m.F.k.s.c.1.@     ",
"                O O.H.b.0.F.a.k.c.c.c.c.c.c.a.c.c.c.c.c.c.c.c.c.a.a.a.x.m.m.m.m.h.q.9.k.N.k.1..     ",
"                X +.a.k.v.m.i.q.c.c.c.c.c.c.c.c.c.c.a.c.c.c.c.c.N.m.m.c.a.q.q.c.N.b.a.c.x.j.y..     ",
"                  0.9.5.b.v.F.a.c.c.c.c.c.c.c.c.c.c.c.c.c.c.c.c.q.q.q.c.k.q.q.q.u.j.a.a.a.b.e.=     ",
"                . e.R.N.N.j.m.q.q.q.q.q.q.q.q.q.q.q.q.q.q.q.q.q.k.c.c.c.F.H.H.F.T.Z.F.H.F.G.( $     ",
"                O z E ] -.j.q.j.C.C.C.C.C.C.C.C.C.C.C.C.C.C.C.C.N.x.3.|  .....] D B P V A P 4 :     ",
"                        o * - * w p l ! ^ W W Q / W Q ~ R g r p 9 3 %                               ",
"                                O             X       .       O .                                   "
};
