/* XPM */
static char *f6526c18c33d476dafb897dc290403bbuSfsc1C4s1FS4IqK[] = {
/* columns rows colors chars-per-pixel */
"50 50 203 2 ",
"   c #050000",
".  c #0B0201",
"X  c #5D0801",
"o  c #640302",
"O  c #6E0201",
"+  c #6F0009",
"@  c #740102",
"#  c #7D0201",
"$  c #720800",
"%  c #780900",
"&  c #7C030C",
"*  c #75000B",
"=  c #780114",
"-  c #810101",
";  c #8B0204",
":  c #870708",
">  c #83080B",
",  c #A60303",
"<  c #CF000D",
"1  c #D30207",
"2  c #E40302",
"3  c #EC0201",
"4  c #E60C00",
"5  c #EE0A00",
"6  c #EC040A",
"7  c #F50201",
"8  c #FD0202",
"9  c #F40B01",
"0  c #FD0A02",
"q  c #F4030B",
"w  c #FD030B",
"e  c #F40A0C",
"r  c #FD0A0C",
"t  c #E71300",
"y  c #FF110D",
"u  c #F2130E",
"i  c #EB0814",
"p  c #F70315",
"a  c #FD0213",
"s  c #FD0C13",
"d  c #FF041C",
"f  c #F60818",
"g  c #EA1D1A",
"h  c #F51414",
"j  c #FC1414",
"k  c #F3131A",
"l  c #F51A1C",
"z  c #F6201E",
"x  c #F52211",
"c  c #FF0824",
"v  c #FF1424",
"b  c #FF1B24",
"n  c #F71D2B",
"m  c #F51921",
"M  c #FE1C33",
"N  c #FD2324",
"B  c #FC2A25",
"V  c #FE252C",
"C  c #FD2C2D",
"Z  c #F32323",
"A  c #FF3826",
"S  c #FA332D",
"D  c #FB2B3D",
"F  c #F73E36",
"G  c #FE333A",
"H  c #F93D37",
"J  c #E72837",
"K  c #FD433C",
"L  c #FF2548",
"P  c #FD3D45",
"I  c #F93A48",
"U  c #F54E43",
"Y  c #FD4B45",
"T  c #FC454A",
"R  c #FE4B4C",
"E  c #EF504C",
"W  c #FB544B",
"Q  c #FD5B4C",
"!  c #F35647",
"~  c #FF4450",
"^  c #FD4C51",
"/  c #FF4F58",
"(  c #F64B51",
")  c #EF5658",
"_  c #FE5354",
"`  c #FC555A",
"'  c #FD5A5B",
"]  c #FC645D",
"[  c #F6635C",
"{  c #F44F60",
"}  c #FB5C61",
"|  c #FF5B69",
" . c #FF5778",
".. c #FC6663",
"X. c #F46C61",
"o. c #FC6866",
"O. c #FF6A6C",
"+. c #FE6770",
"@. c #FF6C74",
"#. c #FF7375",
"$. c #FC757C",
"%. c #E97673",
"&. c #F88373",
"*. c #F47F88",
"=. c #FC7691",
"-. c #FE8484",
";. c #FB8C89",
":. c #EE918A",
">. c #FC9385",
",. c #F5918E",
"<. c #FF918D",
"1. c #F29A8E",
"2. c #F18C94",
"3. c #FF8E91",
"4. c #F49192",
"5. c #FF9295",
"6. c #F49A92",
"7. c #FF9B9C",
"8. c #F59B99",
"9. c #FCA49A",
"0. c #FF9BA2",
"q. c #F4AAA7",
"w. c #F7A4A2",
"e. c #F6B2AE",
"r. c #FAB4A8",
"t. c #FCADB5",
"y. c #FDB8B4",
"u. c #FFC4BC",
"i. c #F4C9B6",
"p. c #FBD0BF",
"a. c #FFB8C0",
"s. c #FFBFD7",
"d. c #EDCECC",
"f. c #FFC1C7",
"g. c #FECCC4",
"h. c #FEC4CB",
"j. c #FFCECB",
"k. c #F4CBCA",
"l. c #FED4CD",
"z. c #F5DBCF",
"x. c #F5CED1",
"c. c #FCCBD2",
"v. c #FDD3D6",
"b. c #F2DDD4",
"n. c #FBDAD1",
"m. c #F3D7D9",
"M. c #FED4D9",
"N. c #FCDDD9",
"B. c #EEE3DF",
"V. c #F5E4D3",
"C. c #FCE4DC",
"Z. c #F1E7DD",
"A. c #F2F1DF",
"S. c #FFDDE3",
"D. c #FFD4E1",
"F. c #F5E4E5",
"G. c #FCE5E4",
"H. c #FFEDE4",
"J. c #FFE4E8",
"K. c #F5EFEF",
"L. c #FFEDEE",
"P. c #EEFCEF",
"I. c #F7F0E4",
"U. c #FCF6E3",
"Y. c #F3FFE7",
"T. c #F6F6EB",
"R. c #FBF2EB",
"E. c #F6FDEE",
"W. c #FCFCED",
"Q. c #F6EFF7",
"!. c #FAEEF4",
"~. c #FFEEFB",
"^. c #ECFEF6",
"/. c #EDFEFD",
"(. c #F5F6F3",
"). c #FDF4F4",
"_. c #F5FFF6",
"`. c #F4FCF4",
"'. c #FEFFF3",
"]. c #FDFCF4",
"[. c #F6F6FB",
"{. c #FFF2FF",
"}. c #FFF6FF",
"|. c #FEF5FC",
" X c #F6FFFF",
".X c #F4FEFD",
"XX c #FFF8F9",
"oX c #FFFAFB",
"OX c #FBFFFA",
"+X c #FEFEFA",
"@X c #FAFAFE",
"#X c #FFFBFF",
"$X c #FFFAFD",
"%X c #FAFEFE",
"&X c #FEFEFD",
"*X c #FFFDFF",
"=X c #FCFFFF",
"-X c #FDFEFF",
";X c #FFFEFF",
":X c white",
">X c #FEFFFF",
",X c #FEFDFE",
"<X c #FEFEFD",
/* pixels */
"# 8 & X # o @ O + O o @ @ o * + O O O O O O O O # , p 8 8 0 7 8 8 8 8 8 8 8 8 8 8 8 7 7 8 8 q 5 i < ",
"* 0 a 0 8 w 8 w 8 8 8 8 8 8 8 7 8 8 8 8 8 8 8 8 8 0 7 7 8 8 w 7 8 8 8 8 8 8 8 8 8 q r 8 q 8 0 8 0 8 ",
"# 0 7 8 8 w r 7 7 8 8 8 s e 8 7 7 7 7 7 7 7 7 7 e 7 8 8 7 7 0 8 8 8 8 8 8 8 8 8 w 8 8 0 0 7 7 w 8 7 ",
"# 0 q w w 7 8 0 w 8 8 8 w q 8 8 8 8 8 8 8 8 8 8 8 8 r w s r w e r r r r r r r r 9 0 r p t 0 f 8 8 0 ",
"# 8 7 0 8 9 W $.| } X.X.] ..o.....................%.C.R.).).J.R.R.R.R.R.R.R.R.R.L.I.[.F.V 7 0 0 8 8 ",
": 8 8 8 q 8 ` T.=X=XXX=X+XXX#X#X=X=X=X=X=X=X=X=X'.+X=X@X=X=X+X+X=X=X=X=X=X=X=X=X@X_.).P 8 w 0 7 q 8 ",
"# 8 3 U G 7 8 w r.W.(.)._.).).=XXXXXXXXXXXXXXXXX#X@X=XOXOX=X X X=X=X=X=X=X=X+X+X}. XY 7 0 V w.8 0 8 ",
"% w w } Y.s 7 r p p. X{.=X+X=X.X=X=X=X=X=X=X=X=X@X=X=X=X=X#X=X#X=X=X=X=X=X=X=X@Xn.K q 8 j !.H.8 8 8 ",
"# 8 2 ' =Xg.P 8 7 s V.=X{.OX'.=X#X=X=X=X=X=X=X'.=X=X=X=X=X=X=X=X}.=X'.=X=X#X_.C.h w 8 0 l._.v.8 7 7 ",
"@ r 8 } }.`.E.{ 7 8 v )..X(.=X_. X+X=X=X=X XXX=X=X=X=X=X=X=X=X=XOXXX X+X).=X).l 0 8 w u.=X.XM.8 8 8 ",
"; 0 8 _  X#X/.=X~ 2 8 C #X'./.#X).XXOX+XXX=X=X=X=X=X=X=X=X=X=X=X).=X].T.=X XB q 8 G z.(.{.@XG.8 w 8 ",
"# 8 5 ' +XK.#XXXK.C 9 7 P =XXX@X.X X=X#X+X+X=X X=X=X=X=X=X=X=X=X=XOXT.=Xh.A 3 8 J '.[.'.#X=X7.8 5 8 ",
"# r 8 _ ^..X_.).=XL.j 8 8 ` .XOX).=X=X#X=X+X=X=X=X=X=X=X=X=X=X=X=XR./.s.8 9 7 v L.=X+XP.!.OXE 8 r 7 ",
"# 8 8 ..=X}..X=XXX@XS.j 3 8 O.OX+X#X=X=XXX+X.X=X=X=X=X=X=X=X=X=X#X=Xm.r 7 7 d B.=X).=X XXX.X' 8 e , ",
"- 8 8 n J.+X#X#X=X). Xx.e 8 7 -.Y.`.).=X.X+X+X=X=X=X=X=X=X=X=X=X^.G.y 8 8 ! S.@X'.=X#XXXE. X' 8 w - ",
"- 8 5 q l.E.XX=X.X'.H.=Xt.8 9 8 L U._.~.=X=X#X=X=X=X=X=X=X=X=X=Xy.z w 5 T =X|.W.+X.X=X'.#X@XQ q w # ",
"# 8 8 7 v.=X+X=X=X_.#X[.OX0.q 8 8 F W. X#X=X=XXX=X#X'.+X/.}.`.q.8 e 8 G _.=X).=X=X=X=X=XXX=X` 8 8 # ",
"# 8 8 8 M.=X+X=X=X).OX X=XW.6.p 8 p R =X}.`.+X#X=XW.=X.X}.XXy.a w 7 M (.+X`.=X].=X=X=X=XXX=X` 8 8 # ",
"# 8 8 8 M.=X+X=X@X#X+X X}.`.'.C.l 8 q } =X'.R.=X=X#X^.).+Xi.a 0 8 O.H. X=X=X X'.=X=X=X=XXX=X' 8 8 # ",
"# 8 8 8 M.=X+X=X=XOXOX=X=X#X[._.j.w 7 a #.(.`.=X.X|.=XOX9.s q 7 o..X=XW.OX=XOX=X=X=X=X=XXX=X' 8 8 # ",
"# 8 8 8 M.=X=X=X=X[.=XOX+X=X=X). Xu.0 8 8 >. XQ.XX+X#X*.w u 8 R OXOX=X}.OX+X=X#X=X=X=X=XXX=X' 8 8 - ",
"# 8 8 8 M.=X=X=X=X=X=XOX+X).`./.[.XXe.8 8 5 w.#X[.).8.8 r q I _. X+X=X=XXX=X=X+X=X=X=X=XXX=X' 8 8 - ",
"# 8 8 8 M.=X=X=XOX.X=X=X.XOX=X=X+X#XOX7.2 w 8 e..Xr.8 0 7 &.!.=X).@X@X=X=X[.=X+X=X=X=X=XXX=X' 8 8 - ",
"# 8 8 8 M.=X=X=XXX=X=X#X=X=X[.=X+X'._.=X-.8 7 e 3.q 0 8 :.=X+X.X=X+X+X=X#X'.'.=X=X=X=X=XXX=X` 8 8 - ",
"# 8 8 8 v.=X+X=X=X=X=X=X=X=X=X=X+XT.=X{..X@.7 w w 8 q @. XXX(. X=X=X=X=X=X=X=X=X=X#X=X=X}.OXQ 8 8 # ",
"# 8 8 8 v.=X+X=X=X=X=X=X=X=X=X=X}..X/.].(.'.F 8 k 8 U .X(.+X+X}.=X=X=X=X=X=X=X=X=X=X+X=X=XF.Z q 8 # ",
"# 8 8 8 v.=X+X=X=X=X=X=X=X=X=X=X#X X/.OX=X2.7 w 8 0 8 8.=X].+X.X=X=X=X=X=X=X=X=X=X=XXX#X=Xc.q 0 8 - ",
"# 8 8 8 v.=X+X=X=X=X=X=X=X=X=X=XOX'.'.).$.8 8 7 [ 8 5 8 t. XW.=X=X=X=X=X=X=X=X=X=X=X=X=XOXc.8 7 8 - ",
"# 8 8 8 v.=X+X=X=X=X=X=X=X=X=X=X`.'.@XT 8 q 0 6. X2.q 0 8 g. X).=X=X=X=X=X=X=X=X=X=X=X=X+Xv.w 7 8 # ",
"# 8 8 8 v.=X+X=X=X=X=X=X=X=X=X=X{.=X' 7 h w &.=X!.=X#.8 5 w x.=X[.=X=X=X=X=X=X=X=X=X=XOX+Xv.7 0 8 # ",
"# 8 8 8 v.=X+X=X=X=X=X=X=X=XXX[.=X] 8 w m 7.OX.XR.W. XQ w 8 j Z.[.=X=X=X=X=X=X=X=X=X+XXX+Xv.q 0 8 - ",
"# 8 8 8 v.=X+X=X=X=X=X=X=X=X).(.[ w 5 8 g.=XT.=X=X}./.=X( 0 8 b [.=X=X=X=X=X=X=X=X=X=X=X.Xv.w 8 8 - ",
"# 8 8 8 D.#X)..X=XXX#X_.'. X).x 8 9 3 a..XXX'.=X.X'.XX.X#XG 0 8 D `.#X'.=X'.=X=X#X=X+X=X#Xn.8 8 8 # ",
"- 0 7 0 k.=X_.}..X.X(.'. XXXD 0 8 a q.=X}.OXXX.X#X[.+X+X=XW.M 8 w P U.=XW.=X+X#X=X=XOX=X=Xj.8 q 8 # ",
"- 0 7 8 z. XXX=XXX.X+X).'.^ 8 8 N e. X).)..X=X=X#X#X=XE.(..XH.g 0 7 d k.@X{.+X=X XXX+X=X[.v.8 w 8 - ",
"# 7 w 8 g.=X).OX'.}. XS.) 0 3 v H.}.XXOX).#X=XXX+X=X/.=X=X}.+Xl.p 8 7 s J.#X X_.=X=X+X=X=XN.8 q 8 & ",
"; 8 q 7 +.=X.XXX[.^.C.a 8 8 0 N..X@X+X).(.=X=X+X).+X=X/.=X].+X=Xd.V 8 7 j ).=X}.#X XOX X#Xk.7 q 8 # ",
"# 7 8 0 T =X(.(.=X).j 8 8 8 h./.#X=X#X X=X+X+XXX+X=X=X#X+X.X#X@X+X).K 0 2 b XX#X.XXX+X}.XXb.8 8 0 o ",
"- 0 w 8 W #X).+X`.B w 0 S f..X{.OX+X=X#X@XOX].=X=X_.+X+X#X=X=X=X@X+X{.S w 7 F '..XXX+X}.OXg.8 8 1 . ",
"- 7 w 8 Y  X#Xm.H 8 8 D '.(.@XOX=X=X=X+X+X.X=X#X X=X#X=X/.+XXX=XOXXX_.).k 0 q ^ #X=X(./._. .7 0 6 . ",
"# 0 0 7 ^  Xy.8 8 0 m A.=X}.#X#X=X=X=X=X=X=X=X=X+X+XXXXX=X=X=X=XOX'.).#XG.k 7 8 ] W.=X_.+XY 8 r 2 . ",
"- 8 3 0 ] Z.w 7 8 d V.'.T.+X^.OX+X+X+X+X+X+X+X+X X X X=X=X+XXX+X=X X+X^.=Xl.c 8 0 =.#XT..X/ 7 w 2   ",
"# 8 8 w C n w 8 T b. X).`.=X X X=X=X=X=X=X=X=X=X=X=X=X=X=X=X=X=X=X}.OX'.XX#Xu.q 9 3 <.XX.XR r 5 2   ",
"# 8 q 8 7 8 0 Y '..X!.=X=X[.XX=X=X=X=X=X=X=X=X=X'.+X+X=X#X#X=X=X'.=X=XXX'.XX'.r.8 0 7 K '.` 8 0 2   ",
"# 0 8 w 9 q I _. X_.'.[. X=X+X#X+X+X+X+X+X+X+X+X=X#X|.=X=X=X(.XXXX).|.=X).).).=X4.q 0 8 } W 3 0 2   ",
"- 8 8 p 8 N J.).F.J.L.).L.T.L.!.L.L.L.L.L.L.L.L.I.'.+X+XXX+X+XOX=X X X[.=X.X[.#X=X>.i q q 8 8 8 2   ",
"# w 8 8 2 9 0 a 0 h 6 8 y 5 s w r r r r r r r r p R ;.1.,.3.3.,.4.<.-.5.5.,.3.3.-.7.' 0 7 0 8 8 2   ",
"- a 4 q w 8 w 7 8 7 w 8 7 8 7 8 8 8 8 8 8 8 8 8 8 0 8 8 7 8 8 8 8 8 8 8 8 8 0 7 w 0 7 8 w 7 w 8 2   ",
"$ 0 6 w 8 0 0 8 8 8 8 8 8 8 8 8 8 8 8 8 8 8 8 8 p r 4 w r r 8 0 8 8 8 8 8 8 8 8 8 8 8 8 q 8 8 8 2   ",
"= q > @ O o O # O O O O O O O O O O O @ O O O O - 3 8 w 8 8 8 8 8 8 8 8 8 8 8 8 8 8 8 0 8 8 8 8 2   "
};
